# xmcd
#
# Track frame offsets:
#	150
#	23509
#	35881
#	47083
#	60574
#	75373
#	88941
#	100651
#	114407
#	133038
#	145795
#	159800
#	173508
#	184238
#	197937
#	210974
#	223735
#	241608
#	252984
#	266305
#
# Disc length: 3712 seconds
#
# Revision: 0
# Processed by: cddbd v1.5.2PL0 Copyright (c) Steve Scherf et al.
# Submitted via: dBpowerAMP V4.0
#
DISCID=050e7e14
DTITLE=Compil - BLUES
DYEAR=1900
DGENRE=Blues
TTITLE0=Blues In The Night
TTITLE1=That's Enough
TTITLE2=Boom Boom
TTITLE3=I'm A Man
TTITLE4=Zu Zu Man
TTITLE5=Sweet Home Chicago
TTITLE6=Good Mogning Litte School Girl
TTITLE7=Blac Breaking Blues
TTITLE8=The Birth of the Blues
TTITLE9=Hound Dog
TTITLE10=My Mamma Don't Allow Me
TTITLE11=Blues After Hours
TTITLE12=Mystery Train
TTITLE13=Me And My Chauffeur
TTITLE14=Dust My Broom
TTITLE15=I've Got A Woman
TTITLE16=V-8 Ford Blues
TTITLE17=Trouble In My Mind
TTITLE18=Nobody Knows You When You're Down And Out
TTITLE19=Blues For My Baby
EXTD=Compilation of many bluesmen
EXTT0=
EXTT1=
EXTT2=
EXTT3=
EXTT4=
EXTT5=
EXTT6=
EXTT7=
EXTT8=
EXTT9=
EXTT10=
EXTT11=
EXTT12=
EXTT13=
EXTT14=
EXTT15=
EXTT16=
EXTT17=
EXTT18=
EXTT19=
PLAYORDER=
